<svg width="77" height="77" viewBox="0 0 77 77" fill="none" xmlns="http://www.w3.org/2000/svg">
<rect width="77" height="77" rx="12.8333" fill="#DF5507"/>
<path d="M55.496 11.3466L51.3714 16.1586L45.5283 11.3466C45.2315 11.1218 44.8694 11.0002 44.4971 11.0002C44.1248 11.0002 43.7627 11.1218 43.466 11.3466L37.6228 16.1586L31.7797 11.3466C31.4829 11.1218 31.1208 11.0002 30.7486 11.0002C30.3763 11.0002 30.0142 11.1218 29.7174 11.3466L23.8743 16.1586L19.7497 11.3466C18.6112 10.4981 17 11.3036 17 12.7215V64.2785C17 65.6964 18.6112 66.5019 19.7497 65.6534L23.8743 60.8414L29.7174 65.6534C30.0142 65.8782 30.3763 65.9998 30.7486 65.9998C31.1208 65.9998 31.4829 65.8782 31.7797 65.6534L37.6228 60.8414L43.466 65.6534C43.7627 65.8782 44.1248 65.9998 44.4971 65.9998C44.8694 65.9998 45.2315 65.8782 45.5283 65.6534L51.3714 60.8414L55.496 65.6534C56.6238 66.5019 58.2457 65.6964 58.2457 64.2785V12.7215C58.2457 11.3036 56.6345 10.4981 55.496 11.3466ZM51.3714 49.6707C51.3714 50.1433 50.9847 50.53 50.5121 50.53H24.7336C24.261 50.53 23.8743 50.1433 23.8743 49.6707V47.9521C23.8743 47.4795 24.261 47.0928 24.7336 47.0928H50.5121C50.9847 47.0928 51.3714 47.4795 51.3714 47.9521V49.6707ZM51.3714 39.3593C51.3714 39.8319 50.9847 40.2186 50.5121 40.2186H24.7336C24.261 40.2186 23.8743 39.8319 23.8743 39.3593V37.6407C23.8743 37.1681 24.261 36.7814 24.7336 36.7814H50.5121C50.9847 36.7814 51.3714 37.1681 51.3714 37.6407V39.3593ZM51.3714 29.0479C51.3714 29.5205 50.9847 29.9072 50.5121 29.9072H24.7336C24.261 29.9072 23.8743 29.5205 23.8743 29.0479V27.3293C23.8743 26.8567 24.261 26.47 24.7336 26.47H50.5121C50.9847 26.47 51.3714 26.8567 51.3714 27.3293V29.0479Z" fill="white"/>
</svg>
