<svg width="77" height="77" viewBox="0 0 77 77" fill="none" xmlns="http://www.w3.org/2000/svg">
<rect width="77" height="77" rx="12.8333" fill="#E829F9"/>
<path d="M49.5015 44.9995H26.5254C26.2504 44.9995 26.0254 45.2245 26.0254 45.4995L26.0191 48.4997C26.0191 48.7747 26.2442 48.9997 26.5192 48.9997H49.5015C49.7765 48.9997 50.0016 48.7747 50.0016 48.4997V45.4995C50.0016 45.2245 49.7765 44.9995 49.5015 44.9995ZM49.5015 50.9998H26.5067C26.2317 50.9998 26.0066 51.2248 26.0066 51.4998L26.0004 54.5C26.0004 54.775 26.2254 55 26.5004 55H49.5015C49.7765 55 50.0016 54.775 50.0016 54.5V51.4998C50.0016 51.2248 49.7765 50.9998 49.5015 50.9998ZM49.5015 38.9992H26.5379C26.2629 38.9992 26.0379 39.2242 26.0379 39.4992L26.0316 42.4994C26.0316 42.7744 26.2567 42.9994 26.5317 42.9994H49.5015C49.7765 42.9994 50.0016 42.7744 50.0016 42.4994V39.4992C50.0016 39.2242 49.7765 38.9992 49.5015 38.9992ZM56.1581 30.3113L39.151 23.2297C38.7855 23.0781 38.3936 23 37.9979 23C37.6021 23 37.2102 23.0781 36.8447 23.2297L19.8438 30.3113C18.7313 30.7801 18 31.8676 18 33.0802V54.5C18 54.775 18.225 55 18.5 55H23.5003C23.7753 55 24.0003 54.775 24.0003 54.5V38.9992C24.0003 37.8992 24.9128 36.9991 26.0379 36.9991H49.9641C51.0891 36.9991 52.0017 37.8992 52.0017 38.9992V54.5C52.0017 54.775 52.2267 55 52.5017 55H57.5019C57.7769 55 58.0019 54.775 58.0019 54.5V33.0802C58.0019 31.8676 57.2707 30.7801 56.1581 30.3113Z" fill="white"/>
</svg>
