<svg width="77" height="77" viewBox="0 0 77 77" fill="none" xmlns="http://www.w3.org/2000/svg">
<rect width="77" height="77" rx="12.8333" fill="#9BCB1E"/>
<path d="M56.3333 51.0363H19.6666C19.1804 51.0363 18.714 51.2906 18.3702 51.7433C18.0264 52.196 17.8333 52.81 17.8333 53.4502C17.8333 54.0904 18.0264 54.7044 18.3702 55.1571C18.714 55.6097 19.1804 55.8641 19.6666 55.8641H56.3333C56.8195 55.8641 57.2858 55.6097 57.6296 55.1571C57.9734 54.7044 58.1666 54.0904 58.1666 53.4502C58.1666 52.81 57.9734 52.196 57.6296 51.7433C57.2858 51.2906 56.8195 51.0363 56.3333 51.0363ZM56.3333 60.6918H19.6666C19.1804 60.6918 18.714 60.9462 18.3702 61.3989C18.0264 61.8515 17.8333 62.4655 17.8333 63.1057C17.8333 63.7459 18.0264 64.3599 18.3702 64.8126C18.714 65.2653 19.1804 65.5196 19.6666 65.5196H56.3333C56.8195 65.5196 57.2858 65.2653 57.6296 64.8126C57.9734 64.3599 58.1666 63.7459 58.1666 63.1057C58.1666 62.4655 57.9734 61.8515 57.6296 61.3989C57.2858 60.9462 56.8195 60.6918 56.3333 60.6918ZM26.9999 26.8974C26.6373 26.8974 26.2829 27.039 25.9814 27.3042C25.6799 27.5695 25.4449 27.9465 25.3061 28.3875C25.1674 28.8286 25.1311 29.314 25.2018 29.7822C25.2726 30.2505 25.4472 30.6806 25.7036 31.0182C25.96 31.3558 26.2866 31.5857 26.6423 31.6788C26.9979 31.7719 27.3665 31.7241 27.7015 31.5414C28.0365 31.3587 28.3228 31.0493 28.5243 30.6524C28.7257 30.2554 28.8333 29.7887 28.8333 29.3113C28.8333 28.6711 28.6401 28.0571 28.2963 27.6044C27.9525 27.1517 27.4861 26.8974 26.9999 26.8974ZM52.6666 12.4141H23.3333C21.8746 12.4141 20.4756 13.177 19.4442 14.5351C18.4127 15.8932 17.8333 17.7351 17.8333 19.6557V38.9668C17.8333 40.8875 18.4127 42.7294 19.4442 44.0875C20.4756 45.4456 21.8746 46.2085 23.3333 46.2085H52.6666C54.1253 46.2085 55.5242 45.4456 56.5557 44.0875C57.5871 42.7294 58.1666 40.8875 58.1666 38.9668V19.6557C58.1666 17.7351 57.5871 15.8932 56.5557 14.5351C55.5242 13.177 54.1253 12.4141 52.6666 12.4141ZM54.4999 38.9668C54.4999 39.607 54.3068 40.221 53.963 40.6737C53.6191 41.1264 53.1528 41.3807 52.6666 41.3807H23.3333C22.847 41.3807 22.3807 41.1264 22.0369 40.6737C21.6931 40.221 21.4999 39.607 21.4999 38.9668V19.6557C21.4999 19.0155 21.6931 18.4015 22.0369 17.9489C22.3807 17.4962 22.847 17.2418 23.3333 17.2418H52.6666C53.1528 17.2418 53.6191 17.4962 53.963 17.9489C54.3068 18.4015 54.4999 19.0155 54.4999 19.6557V38.9668ZM37.9999 22.0696C36.9121 22.0696 35.8488 22.4943 34.9443 23.2901C34.0398 24.0858 33.3349 25.2168 32.9186 26.54C32.5023 27.8633 32.3934 29.3193 32.6056 30.7241C32.8178 32.1288 33.3416 33.4192 34.1108 34.4319C34.88 35.4447 35.86 36.1344 36.9269 36.4138C37.9938 36.6932 39.0997 36.5498 40.1047 36.0017C41.1097 35.4536 41.9687 34.5254 42.573 33.3345C43.1774 32.1437 43.4999 30.7436 43.4999 29.3113C43.4999 27.3907 42.9205 25.5487 41.889 24.1907C40.8576 22.8326 39.4586 22.0696 37.9999 22.0696ZM37.9999 31.7252C37.6373 31.7252 37.2829 31.5836 36.9814 31.3184C36.6799 31.0531 36.4449 30.6761 36.3061 30.235C36.1674 29.794 36.1311 29.3086 36.2018 28.8404C36.2726 28.3721 36.4472 27.942 36.7036 27.6044C36.96 27.2668 37.2866 27.0369 37.6423 26.9438C37.9979 26.8506 38.3665 26.8984 38.7015 27.0811C39.0365 27.2638 39.3228 27.5732 39.5243 27.9702C39.7257 28.3672 39.8333 28.8339 39.8333 29.3113C39.8333 29.9515 39.6401 30.5655 39.2963 31.0182C38.9525 31.4709 38.4862 31.7252 37.9999 31.7252ZM48.9999 26.8974C48.6373 26.8974 48.2829 27.039 47.9814 27.3042C47.6799 27.5695 47.4449 27.9465 47.3061 28.3875C47.1674 28.8286 47.1311 29.314 47.2018 29.7822C47.2726 30.2505 47.4472 30.6806 47.7036 31.0182C47.96 31.3558 48.2866 31.5857 48.6423 31.6788C48.9979 31.7719 49.3665 31.7241 49.7015 31.5414C50.0365 31.3587 50.3228 31.0493 50.5243 30.6524C50.7257 30.2554 50.8333 29.7887 50.8333 29.3113C50.8333 28.6711 50.6401 28.0571 50.2963 27.6044C49.9525 27.1517 49.4862 26.8974 48.9999 26.8974Z" fill="white"/>
</svg>
