<svg width="77" height="77" viewBox="0 0 77 77" fill="none" xmlns="http://www.w3.org/2000/svg">
<rect width="77" height="77" rx="12.8333" fill="#6FCCEE"/>
<path d="M66.8438 34.2812H61.2188V28.6562C61.2188 27.8828 60.5859 27.25 59.8125 27.25H57C56.2266 27.25 55.5938 27.8828 55.5938 28.6562V34.2812H49.9688C49.1953 34.2812 48.5625 34.9141 48.5625 35.6875V38.5C48.5625 39.2734 49.1953 39.9062 49.9688 39.9062H55.5938V45.5312C55.5938 46.3047 56.2266 46.9375 57 46.9375H59.8125C60.5859 46.9375 61.2188 46.3047 61.2188 45.5312V39.9062H66.8438C67.6172 39.9062 68.25 39.2734 68.25 38.5V35.6875C68.25 34.9141 67.6172 34.2812 66.8438 34.2812ZM31.6875 38.5C37.9014 38.5 42.9375 33.4639 42.9375 27.25C42.9375 21.0361 37.9014 16 31.6875 16C25.4736 16 20.4375 21.0361 20.4375 27.25C20.4375 33.4639 25.4736 38.5 31.6875 38.5ZM39.5625 41.3125H38.0947C36.1436 42.209 33.9727 42.7188 31.6875 42.7188C29.4023 42.7188 27.2402 42.209 25.2803 41.3125H23.8125C17.291 41.3125 12 46.6035 12 53.125V56.7812C12 59.1104 13.8896 61 16.2188 61H47.1562C49.4854 61 51.375 59.1104 51.375 56.7812V53.125C51.375 46.6035 46.084 41.3125 39.5625 41.3125Z" fill="white"/>
</svg>
